<svg width="180" height="180" viewBox="0 0 180 180" fill="none" xmlns="http://www.w3.org/2000/svg">
<g clip-path="url(#clip0_898_2)">
<rect width="180" height="180" rx="16" fill="black"/>
<path d="M26.5 125V55.1818H56.6364C61.8182 55.1818 66.3523 56.2045 70.2386 58.25C74.125 60.2955 77.1477 63.1705 79.3068 66.875C81.4659 70.5795 82.5455 74.9091 82.5455 79.8636C82.5455 84.8636 81.4318 89.1932 79.2045 92.8523C77 96.5114 73.8977 99.3295 69.8977 101.307C65.9205 103.284 61.2727 104.273 55.9545 104.273H37.9545V89.5455H52.1364C54.3636 89.5455 56.2614 89.1591 57.8295 88.3864C59.4205 87.5909 60.6364 86.4659 61.4773 85.0114C62.3409 83.5568 62.7727 81.8409 62.7727 79.8636C62.7727 77.8636 62.3409 76.1591 61.4773 74.75C60.6364 73.3182 59.4205 72.2273 57.8295 71.4773C56.2614 70.7045 54.3636 70.3182 52.1364 70.3182H45.4545V125H26.5ZM153.722 81.3636H134.495C134.358 79.7727 133.995 78.3295 133.404 77.0341C132.835 75.7386 132.04 74.625 131.017 73.6932C130.017 72.7386 128.801 72.0114 127.37 71.5114C125.938 70.9886 124.313 70.7273 122.495 70.7273C119.313 70.7273 116.62 71.5 114.415 73.0455C112.233 74.5909 110.574 76.8068 109.438 79.6932C108.324 82.5795 107.767 86.0455 107.767 90.0909C107.767 94.3636 108.335 97.9432 109.472 100.83C110.631 103.693 112.301 105.852 114.483 107.307C116.665 108.739 119.29 109.455 122.358 109.455C124.108 109.455 125.676 109.239 127.063 108.807C128.449 108.352 129.654 107.705 130.676 106.864C131.699 106.023 132.529 105.011 133.165 103.83C133.824 102.625 134.267 101.273 134.495 99.7727L153.722 99.9091C153.495 102.864 152.665 105.875 151.233 108.943C149.801 111.989 147.767 114.807 145.131 117.398C142.517 119.966 139.279 122.034 135.415 123.602C131.551 125.17 127.063 125.955 121.949 125.955C115.54 125.955 109.79 124.58 104.699 121.83C99.6309 119.08 95.6195 115.034 92.665 109.693C89.7332 104.352 88.2673 97.8182 88.2673 90.0909C88.2673 82.3182 89.7673 75.7727 92.7673 70.4545C95.7673 65.1136 99.8127 61.0795 104.904 58.3523C109.995 55.6023 115.676 54.2273 121.949 54.2273C126.358 54.2273 130.415 54.8295 134.12 56.0341C137.824 57.2386 141.074 59 143.87 61.3182C146.665 63.6136 148.915 66.4432 150.62 69.8068C152.324 73.1705 153.358 77.0227 153.722 81.3636Z" fill="white"/>
</g>
<defs>
<clipPath id="clip0_898_2">
<rect width="180" height="180" fill="white"/>
</clipPath>
</defs>
</svg>
